<svg width="100" height="40" viewBox="0 0 100 40" fill="none" xmlns="http://www.w3.org/2000/svg">
<rect width="100" height="40"/>
<mask id="path-1-outside-1_40_5802" maskUnits="userSpaceOnUse" x="12" y="9" width="75" height="26" fill="black">
<rect fill="white" x="12" y="9" width="75" height="26"/>
<path d="M18.73 28.308C17.234 28.308 16.1047 27.7507 15.342 26.636C14.594 25.5213 14.22 23.9373 14.22 21.884C14.22 19.8307 14.594 18.2467 15.342 17.132C16.1047 16.0173 17.234 15.46 18.73 15.46C19.478 15.46 20.138 15.6433 20.71 16.01C21.2967 16.3767 21.7733 16.7947 22.14 17.264V14.492H20.842V10.884H27.2V24.392H28.168V28H22.14V26.504C21.7733 26.9733 21.2967 27.3913 20.71 27.758C20.138 28.1247 19.478 28.308 18.73 28.308ZM20.864 24.392C21.2893 24.392 21.6047 24.282 21.81 24.062C22.03 23.8273 22.14 23.468 22.14 22.984V20.784C22.14 20.3 22.03 19.948 21.81 19.728C21.6047 19.4933 21.2893 19.376 20.864 19.376C20.4387 19.376 20.116 19.4933 19.896 19.728C19.6907 19.948 19.588 20.3 19.588 20.784V22.984C19.588 23.468 19.6907 23.8273 19.896 24.062C20.116 24.282 20.4387 24.392 20.864 24.392ZM41.7025 24.392V28H35.8945V26.504C35.5718 26.9733 35.1171 27.3913 34.5305 27.758C33.9585 28.1247 33.2545 28.308 32.4185 28.308C31.3185 28.308 30.4531 28.0147 29.8225 27.428C29.1918 26.8413 28.8765 26.0127 28.8765 24.942C28.8765 22.17 31.2305 20.7473 35.9385 20.674C35.8945 20.1753 35.7038 19.838 35.3665 19.662C35.0291 19.4713 34.4571 19.376 33.6505 19.376C32.9905 19.376 32.2791 19.4493 31.5165 19.596C30.7685 19.728 30.0791 19.9113 29.4485 20.146V16.098C30.2258 15.9073 31.0691 15.7533 31.9785 15.636C32.8878 15.5187 33.7751 15.46 34.6405 15.46C36.8258 15.46 38.3878 15.856 39.3265 16.648C40.2651 17.44 40.7345 18.6647 40.7345 20.322V24.392H41.7025ZM35.8945 22.852C35.2345 22.852 34.7211 22.94 34.3545 23.116C34.0025 23.292 33.8265 23.5853 33.8265 23.996C33.8265 24.2453 33.8998 24.4507 34.0465 24.612C34.2078 24.7587 34.4278 24.832 34.7065 24.832C35.0878 24.832 35.3811 24.6707 35.5865 24.348C35.7918 24.0253 35.8945 23.5707 35.8945 22.984V22.852ZM55.6556 15.768V19.376H54.8196L51.9376 27.01C51.219 28.9313 50.3976 30.3687 49.4736 31.322C48.5496 32.29 47.3323 32.774 45.8216 32.774C45.2056 32.774 44.5823 32.708 43.9516 32.576C43.321 32.4587 42.749 32.29 42.2356 32.07V28.088H45.2716V28.308C45.2716 28.6747 45.4623 28.858 45.8436 28.858C46.181 28.858 46.4376 28.6967 46.6136 28.374L43.1376 19.376H42.3016V15.768H48.8356V19.376H48.0876L49.2316 22.808L50.2876 19.376H49.5396V15.768H55.6556ZM56.312 28.022V24.392H57.28V14.492H56.312V10.884H62.34V24.392H63.308V28.022H56.312ZM65.0594 14.558V10.884H69.5474V14.558H65.0594ZM64.0034 28V24.392H64.9714V19.376H64.0034V15.768H70.0314V24.392H70.9994V28H64.0034ZM84.2369 24.392H84.9409V28H78.0769V24.392H78.6929L77.8349 23.094H77.6149L76.7569 24.392H77.3729V28H71.4769V24.392H72.4009L75.0629 22.016L72.2689 19.376H71.5649V15.768H78.4289V19.376H77.8129L78.6709 20.652H78.8909L79.7489 19.376H79.1329V15.768H84.8529V19.376H83.9289L81.3989 21.708L84.2369 24.392Z"/>
</mask>
<path d="M18.73 28.308C17.234 28.308 16.1047 27.7507 15.342 26.636C14.594 25.5213 14.22 23.9373 14.22 21.884C14.22 19.8307 14.594 18.2467 15.342 17.132C16.1047 16.0173 17.234 15.46 18.73 15.46C19.478 15.46 20.138 15.6433 20.71 16.01C21.2967 16.3767 21.7733 16.7947 22.14 17.264V14.492H20.842V10.884H27.2V24.392H28.168V28H22.14V26.504C21.7733 26.9733 21.2967 27.3913 20.71 27.758C20.138 28.1247 19.478 28.308 18.73 28.308ZM20.864 24.392C21.2893 24.392 21.6047 24.282 21.81 24.062C22.03 23.8273 22.14 23.468 22.14 22.984V20.784C22.14 20.3 22.03 19.948 21.81 19.728C21.6047 19.4933 21.2893 19.376 20.864 19.376C20.4387 19.376 20.116 19.4933 19.896 19.728C19.6907 19.948 19.588 20.3 19.588 20.784V22.984C19.588 23.468 19.6907 23.8273 19.896 24.062C20.116 24.282 20.4387 24.392 20.864 24.392ZM41.7025 24.392V28H35.8945V26.504C35.5718 26.9733 35.1171 27.3913 34.5305 27.758C33.9585 28.1247 33.2545 28.308 32.4185 28.308C31.3185 28.308 30.4531 28.0147 29.8225 27.428C29.1918 26.8413 28.8765 26.0127 28.8765 24.942C28.8765 22.17 31.2305 20.7473 35.9385 20.674C35.8945 20.1753 35.7038 19.838 35.3665 19.662C35.0291 19.4713 34.4571 19.376 33.6505 19.376C32.9905 19.376 32.2791 19.4493 31.5165 19.596C30.7685 19.728 30.0791 19.9113 29.4485 20.146V16.098C30.2258 15.9073 31.0691 15.7533 31.9785 15.636C32.8878 15.5187 33.7751 15.46 34.6405 15.46C36.8258 15.46 38.3878 15.856 39.3265 16.648C40.2651 17.44 40.7345 18.6647 40.7345 20.322V24.392H41.7025ZM35.8945 22.852C35.2345 22.852 34.7211 22.94 34.3545 23.116C34.0025 23.292 33.8265 23.5853 33.8265 23.996C33.8265 24.2453 33.8998 24.4507 34.0465 24.612C34.2078 24.7587 34.4278 24.832 34.7065 24.832C35.0878 24.832 35.3811 24.6707 35.5865 24.348C35.7918 24.0253 35.8945 23.5707 35.8945 22.984V22.852ZM55.6556 15.768V19.376H54.8196L51.9376 27.01C51.219 28.9313 50.3976 30.3687 49.4736 31.322C48.5496 32.29 47.3323 32.774 45.8216 32.774C45.2056 32.774 44.5823 32.708 43.9516 32.576C43.321 32.4587 42.749 32.29 42.2356 32.07V28.088H45.2716V28.308C45.2716 28.6747 45.4623 28.858 45.8436 28.858C46.181 28.858 46.4376 28.6967 46.6136 28.374L43.1376 19.376H42.3016V15.768H48.8356V19.376H48.0876L49.2316 22.808L50.2876 19.376H49.5396V15.768H55.6556ZM56.312 28.022V24.392H57.28V14.492H56.312V10.884H62.34V24.392H63.308V28.022H56.312ZM65.0594 14.558V10.884H69.5474V14.558H65.0594ZM64.0034 28V24.392H64.9714V19.376H64.0034V15.768H70.0314V24.392H70.9994V28H64.0034ZM84.2369 24.392H84.9409V28H78.0769V24.392H78.6929L77.8349 23.094H77.6149L76.7569 24.392H77.3729V28H71.4769V24.392H72.4009L75.0629 22.016L72.2689 19.376H71.5649V15.768H78.4289V19.376H77.8129L78.6709 20.652H78.8909L79.7489 19.376H79.1329V15.768H84.8529V19.376H83.9289L81.3989 21.708L84.2369 24.392Z" fill="white"/>
<path d="M15.342 26.636L13.8473 27.639L13.8519 27.6457L13.8564 27.6524L15.342 26.636ZM15.342 17.132L13.8564 16.1156L13.8519 16.1223L13.8473 16.129L15.342 17.132ZM20.71 16.01L19.7386 17.5254L19.7473 17.5309L19.756 17.5364L20.71 16.01ZM22.14 17.264L20.7216 18.3722L23.94 22.4918V17.264H22.14ZM22.14 14.492H23.94V12.692H22.14V14.492ZM20.842 14.492H19.042V16.292H20.842V14.492ZM20.842 10.884V9.084H19.042V10.884H20.842ZM27.2 10.884H29V9.084H27.2V10.884ZM27.2 24.392H25.4V26.192H27.2V24.392ZM28.168 24.392H29.968V22.592H28.168V24.392ZM28.168 28V29.8H29.968V28H28.168ZM22.14 28H20.34V29.8H22.14V28ZM22.14 26.504H23.94V21.2762L20.7216 25.3958L22.14 26.504ZM20.71 27.758L19.756 26.2316L19.7473 26.2371L19.7386 26.2426L20.71 27.758ZM21.81 24.062L20.4968 22.8309L20.4941 22.8338L21.81 24.062ZM21.81 19.728L20.4554 20.9133L20.4948 20.9584L20.5372 21.0008L21.81 19.728ZM19.896 19.728L18.5828 18.4969L18.5801 18.4998L19.896 19.728ZM19.896 24.062L18.5414 25.2473L18.5808 25.2924L18.6232 25.3348L19.896 24.062ZM18.73 26.508C17.7532 26.508 17.2145 26.1851 16.8276 25.6196L13.8564 27.6524C14.9948 29.3162 16.7148 30.108 18.73 30.108V26.508ZM16.8367 25.633C16.3673 24.9336 16.02 23.7564 16.02 21.884H12.42C12.42 24.1183 12.8207 26.1091 13.8473 27.639L16.8367 25.633ZM16.02 21.884C16.02 20.0116 16.3673 18.8344 16.8367 18.135L13.8473 16.129C12.8207 17.6589 12.42 19.6497 12.42 21.884H16.02ZM16.8276 18.1484C17.2145 17.5829 17.7532 17.26 18.73 17.26V13.66C16.7148 13.66 14.9948 14.4518 13.8564 16.1156L16.8276 18.1484ZM18.73 17.26C19.1697 17.26 19.4854 17.3631 19.7386 17.5254L21.6814 14.4946C20.7906 13.9236 19.7863 13.66 18.73 13.66V17.26ZM19.756 17.5364C20.1929 17.8095 20.5032 18.0926 20.7216 18.3722L23.5584 16.1558C23.0435 15.4967 22.4004 14.9439 21.664 14.4836L19.756 17.5364ZM23.94 17.264V14.492H20.34V17.264H23.94ZM22.14 12.692H20.842V16.292H22.14V12.692ZM22.642 14.492V10.884H19.042V14.492H22.642ZM20.842 12.684H27.2V9.084H20.842V12.684ZM25.4 10.884V24.392H29V10.884H25.4ZM27.2 26.192H28.168V22.592H27.2V26.192ZM26.368 24.392V28H29.968V24.392H26.368ZM28.168 26.2H22.14V29.8H28.168V26.2ZM23.94 28V26.504H20.34V28H23.94ZM20.7216 25.3958C20.5032 25.6754 20.1929 25.9585 19.756 26.2316L21.664 29.2844C22.4004 28.8241 23.0435 28.2713 23.5584 27.6122L20.7216 25.3958ZM19.7386 26.2426C19.4854 26.4049 19.1697 26.508 18.73 26.508V30.108C19.7863 30.108 20.7906 29.8444 21.6814 29.2734L19.7386 26.2426ZM20.864 26.192C21.5774 26.192 22.4589 26.0048 23.1259 25.2902L20.4941 22.8338C20.6118 22.7078 20.7394 22.6404 20.8266 22.6099C20.9036 22.5831 20.9274 22.592 20.864 22.592V26.192ZM23.1232 25.2931C23.782 24.5903 23.94 23.6997 23.94 22.984H20.34C20.34 23.096 20.3265 23.1216 20.3363 23.0896C20.3483 23.0505 20.3897 22.9452 20.4968 22.8309L23.1232 25.2931ZM23.94 22.984V20.784H20.34V22.984H23.94ZM23.94 20.784C23.94 20.0809 23.7872 19.1597 23.0828 18.4552L20.5372 21.0008C20.4066 20.8702 20.3552 20.7443 20.3394 20.6939C20.3262 20.6516 20.34 20.6707 20.34 20.784H23.94ZM23.1646 18.5427C22.5058 17.7898 21.6105 17.576 20.864 17.576V21.176C20.9166 21.176 20.8801 21.1839 20.7918 21.151C20.692 21.1139 20.565 21.0386 20.4554 20.9133L23.1646 18.5427ZM20.864 17.576C20.109 17.576 19.243 17.7927 18.5828 18.4969L21.2092 20.9591C21.113 21.0617 21.0041 21.1244 20.9181 21.1556C20.8416 21.1835 20.8129 21.176 20.864 21.176V17.576ZM18.5801 18.4998C17.9213 19.2057 17.788 20.1077 17.788 20.784H21.388C21.388 20.6615 21.4019 20.6306 21.393 20.661C21.3825 20.6971 21.3388 20.8202 21.2119 20.9562L18.5801 18.4998ZM17.788 20.784V22.984H21.388V20.784H17.788ZM17.788 22.984C17.788 23.6738 17.9269 24.5451 18.5414 25.2473L21.2506 22.8767C21.354 22.9948 21.3884 23.0964 21.3957 23.122C21.4016 23.1424 21.388 23.1052 21.388 22.984H17.788ZM18.6232 25.3348C19.2894 26.001 20.1407 26.192 20.864 26.192V22.592C20.802 22.592 20.8184 22.5835 20.8838 22.6058C20.9577 22.631 21.066 22.6865 21.1688 22.7892L18.6232 25.3348ZM41.7025 24.392H43.5025V22.592H41.7025V24.392ZM41.7025 28V29.8H43.5025V28H41.7025ZM35.8945 28H34.0945V29.8H35.8945V28ZM35.8945 26.504H37.6945V20.7086L34.4112 25.4842L35.8945 26.504ZM34.5305 27.758L33.5765 26.2316L33.5677 26.2371L33.5591 26.2426L34.5305 27.758ZM29.8225 27.428L31.0485 26.1101L31.0485 26.1101L29.8225 27.428ZM35.9385 20.674L35.9665 22.4738L37.9016 22.4436L37.7315 20.5158L35.9385 20.674ZM35.3665 19.662L34.4808 21.229L34.5071 21.2439L34.5339 21.2579L35.3665 19.662ZM31.5165 19.596L31.8293 21.3686L31.8429 21.3662L31.8564 21.3636L31.5165 19.596ZM29.4485 20.146H27.6485V22.7363L30.0762 21.833L29.4485 20.146ZM29.4485 16.098L29.0197 14.3498L27.6485 14.6862V16.098H29.4485ZM40.7345 24.392H38.9345V26.192H40.7345V24.392ZM35.8945 22.852H37.6945V21.052H35.8945V22.852ZM34.3545 23.116L33.5756 21.4933L33.5625 21.4995L33.5495 21.506L34.3545 23.116ZM34.0465 24.612L32.7146 25.8228L32.7722 25.8862L32.8357 25.9439L34.0465 24.612ZM39.9025 24.392V28H43.5025V24.392H39.9025ZM41.7025 26.2H35.8945V29.8H41.7025V26.2ZM37.6945 28V26.504H34.0945V28H37.6945ZM34.4112 25.4842C34.255 25.7115 33.9978 25.9683 33.5765 26.2316L35.4845 29.2844C36.2365 28.8144 36.8886 28.2352 37.3777 27.5238L34.4112 25.4842ZM33.5591 26.2426C33.3374 26.3847 32.9897 26.508 32.4185 26.508V30.108C33.5192 30.108 34.5795 29.8646 35.5019 29.2734L33.5591 26.2426ZM32.4185 26.508C31.6426 26.508 31.2613 26.3081 31.0485 26.1101L28.5965 28.7459C29.645 29.7213 30.9943 30.108 32.4185 30.108V26.508ZM31.0485 26.1101C30.8693 25.9434 30.6765 25.6428 30.6765 24.942H27.0765C27.0765 26.3826 27.5143 27.7393 28.5965 28.7459L31.0485 26.1101ZM30.6765 24.942C30.6765 24.1802 30.9405 23.7188 31.573 23.3365C32.3464 22.8691 33.7321 22.5086 35.9665 22.4738L35.9104 18.8742C33.4368 18.9127 31.2916 19.3002 29.7109 20.2555C27.9894 21.2959 27.0765 22.9318 27.0765 24.942H30.6765ZM37.7315 20.5158C37.6527 19.6222 37.2491 18.614 36.1991 18.0661L34.5339 21.2579C34.3883 21.1819 34.2679 21.0608 34.1955 20.9327C34.1332 20.8226 34.1397 20.767 34.1454 20.8322L37.7315 20.5158ZM36.2522 18.095C35.4808 17.659 34.4994 17.576 33.6505 17.576V21.176C33.9899 21.176 34.2299 21.1966 34.3886 21.223C34.56 21.2516 34.562 21.2749 34.4808 21.229L36.2522 18.095ZM33.6505 17.576C32.8585 17.576 32.0322 17.6638 31.1765 17.8284L31.8564 21.3636C32.5261 21.2348 33.1224 21.176 33.6505 21.176V17.576ZM31.2037 17.8234C30.3618 17.972 29.5656 18.1818 28.8207 18.459L30.0762 21.833C30.5926 21.6408 31.1752 21.484 31.8293 21.3686L31.2037 17.8234ZM31.2485 20.146V16.098H27.6485V20.146H31.2485ZM29.8773 17.8462C30.5806 17.6737 31.3569 17.5311 32.2088 17.4212L31.7481 13.8508C30.7814 13.9755 29.871 14.141 29.0197 14.3498L29.8773 17.8462ZM32.2088 17.4212C33.0463 17.3131 33.8566 17.26 34.6405 17.26V13.66C33.6937 13.66 32.7293 13.7242 31.7481 13.8508L32.2088 17.4212ZM34.6405 17.26C36.6979 17.26 37.723 17.6502 38.1657 18.0237L40.4872 15.2723C39.0526 14.0618 36.9537 13.66 34.6405 13.66V17.26ZM38.1657 18.0237C38.5699 18.3648 38.9345 18.999 38.9345 20.322H42.5345C42.5345 18.3303 41.9603 16.5152 40.4872 15.2723L38.1657 18.0237ZM38.9345 20.322V24.392H42.5345V20.322H38.9345ZM40.7345 26.192H41.7025V22.592H40.7345V26.192ZM35.8945 21.052C35.1134 21.052 34.2908 21.1499 33.5756 21.4933L35.1334 24.7387C35.131 24.7399 35.1829 24.7154 35.3186 24.6921C35.4524 24.6692 35.6408 24.652 35.8945 24.652V21.052ZM33.5495 21.506C33.1144 21.7236 32.7044 22.0596 32.415 22.5419C32.1283 23.0197 32.0265 23.5301 32.0265 23.996H35.6265C35.6265 24.0512 35.6127 24.2096 35.502 24.3941C35.3885 24.5831 35.2425 24.6844 35.1595 24.726L33.5495 21.506ZM32.0265 23.996C32.0265 24.6243 32.2234 25.2825 32.7146 25.8228L35.3784 23.4012C35.4649 23.4964 35.5333 23.6105 35.5766 23.7316C35.6185 23.8489 35.6265 23.9435 35.6265 23.996H32.0265ZM32.8357 25.9439C33.4126 26.4684 34.1087 26.632 34.7065 26.632V23.032C34.7228 23.032 34.7954 23.034 34.9017 23.0694C35.014 23.1068 35.1409 23.1743 35.2573 23.2801L32.8357 25.9439ZM34.7065 26.632C35.7054 26.632 36.5705 26.1544 37.1051 25.3144L34.0679 23.3816C34.1041 23.3247 34.1911 23.2185 34.345 23.1338C34.4992 23.049 34.6366 23.032 34.7065 23.032V26.632ZM37.1051 25.3144C37.5677 24.5873 37.6945 23.7438 37.6945 22.984H34.0945C34.0945 23.1765 34.0772 23.2997 34.0617 23.3685C34.0463 23.4364 34.0379 23.4287 34.0679 23.3816L37.1051 25.3144ZM37.6945 22.984V22.852H34.0945V22.984H37.6945ZM55.6556 15.768H57.4556V13.968H55.6556V15.768ZM55.6556 19.376V21.176H57.4556V19.376H55.6556ZM54.8196 19.376V17.576H53.5752L53.1356 18.7403L54.8196 19.376ZM51.9376 27.01L50.2536 26.3743L50.2517 26.3794L51.9376 27.01ZM49.4736 31.322L48.1811 30.0692L48.1716 30.0791L49.4736 31.322ZM43.9516 32.576L44.3204 30.8142L44.3007 30.8101L44.2809 30.8064L43.9516 32.576ZM42.2356 32.07H40.4356V33.2569L41.5266 33.7245L42.2356 32.07ZM42.2356 28.088V26.288H40.4356V28.088H42.2356ZM45.2716 28.088H47.0716V26.288H45.2716V28.088ZM46.6136 28.374L48.1938 29.2359L48.5933 28.5036L48.2927 27.7254L46.6136 28.374ZM43.1376 19.376L44.8167 18.7274L44.3719 17.576H43.1376V19.376ZM42.3016 19.376H40.5016V21.176H42.3016V19.376ZM42.3016 15.768V13.968H40.5016V15.768H42.3016ZM48.8356 15.768H50.6356V13.968H48.8356V15.768ZM48.8356 19.376V21.176H50.6356V19.376H48.8356ZM48.0876 19.376V17.576H45.5903L46.38 19.9452L48.0876 19.376ZM49.2316 22.808L47.524 23.3772L49.3002 28.7058L50.952 23.3374L49.2316 22.808ZM50.2876 19.376L52.008 19.9054L52.7248 17.576H50.2876V19.376ZM49.5396 19.376H47.7396V21.176H49.5396V19.376ZM49.5396 15.768V13.968H47.7396V15.768H49.5396ZM53.8556 15.768V19.376H57.4556V15.768H53.8556ZM55.6556 17.576H54.8196V21.176H55.6556V17.576ZM53.1356 18.7403L50.2536 26.3743L53.6216 27.6457L56.5036 20.0117L53.1356 18.7403ZM50.2517 26.3794C49.5774 28.1821 48.8644 29.3642 48.1811 30.0692L50.7661 32.5748C51.9308 31.3731 52.8605 29.6806 53.6235 27.6406L50.2517 26.3794ZM48.1716 30.0791C47.6325 30.6439 46.91 30.974 45.8216 30.974V34.574C47.7546 34.574 49.4668 33.9361 50.7757 32.5649L48.1716 30.0791ZM45.8216 30.974C45.3351 30.974 44.8353 30.922 44.3204 30.8142L43.5829 34.3378C44.3293 34.494 45.0762 34.574 45.8216 34.574V30.974ZM44.2809 30.8064C43.7618 30.7098 43.3196 30.5762 42.9447 30.4155L41.5266 33.7245C42.1783 34.0038 42.8801 34.2075 43.6224 34.3456L44.2809 30.8064ZM44.0356 32.07V28.088H40.4356V32.07H44.0356ZM42.2356 29.888H45.2716V26.288H42.2356V29.888ZM43.4716 28.088V28.308H47.0716V28.088H43.4716ZM43.4716 28.308C43.4716 28.7872 43.5999 29.4727 44.167 30.018C44.721 30.5506 45.3928 30.658 45.8436 30.658V27.058C45.9131 27.058 46.299 27.0737 46.6622 27.423C47.0386 27.7849 47.0716 28.1955 47.0716 28.308H43.4716ZM45.8436 30.658C46.3118 30.658 46.8001 30.5419 47.247 30.2609C47.686 29.985 47.9896 29.6104 48.1938 29.2359L45.0334 27.5121C45.0617 27.4603 45.1489 27.3277 45.3312 27.2131C45.5215 27.0935 45.7128 27.058 45.8436 27.058V30.658ZM48.2927 27.7254L44.8167 18.7274L41.4586 20.0246L44.9346 29.0226L48.2927 27.7254ZM43.1376 17.576H42.3016V21.176H43.1376V17.576ZM44.1016 19.376V15.768H40.5016V19.376H44.1016ZM42.3016 17.568H48.8356V13.968H42.3016V17.568ZM47.0356 15.768V19.376H50.6356V15.768H47.0356ZM48.8356 17.576H48.0876V21.176H48.8356V17.576ZM46.38 19.9452L47.524 23.3772L50.9393 22.2388L49.7953 18.8068L46.38 19.9452ZM50.952 23.3374L52.008 19.9054L48.5672 18.8466L47.5112 22.2786L50.952 23.3374ZM50.2876 17.576H49.5396V21.176H50.2876V17.576ZM51.3396 19.376V15.768H47.7396V19.376H51.3396ZM49.5396 17.568H55.6556V13.968H49.5396V17.568ZM56.312 28.022H54.512V29.822H56.312V28.022ZM56.312 24.392V22.592H54.512V24.392H56.312ZM57.28 24.392V26.192H59.08V24.392H57.28ZM57.28 14.492H59.08V12.692H57.28V14.492ZM56.312 14.492H54.512V16.292H56.312V14.492ZM56.312 10.884V9.084H54.512V10.884H56.312ZM62.34 10.884H64.14V9.084H62.34V10.884ZM62.34 24.392H60.54V26.192H62.34V24.392ZM63.308 24.392H65.108V22.592H63.308V24.392ZM63.308 28.022V29.822H65.108V28.022H63.308ZM58.112 28.022V24.392H54.512V28.022H58.112ZM56.312 26.192H57.28V22.592H56.312V26.192ZM59.08 24.392V14.492H55.48V24.392H59.08ZM57.28 12.692H56.312V16.292H57.28V12.692ZM58.112 14.492V10.884H54.512V14.492H58.112ZM56.312 12.684H62.34V9.084H56.312V12.684ZM60.54 10.884V24.392H64.14V10.884H60.54ZM62.34 26.192H63.308V22.592H62.34V26.192ZM61.508 24.392V28.022H65.108V24.392H61.508ZM63.308 26.222H56.312V29.822H63.308V26.222ZM65.0594 14.558H63.2594V16.358H65.0594V14.558ZM65.0594 10.884V9.084H63.2594V10.884H65.0594ZM69.5474 10.884H71.3474V9.084H69.5474V10.884ZM69.5474 14.558V16.358H71.3474V14.558H69.5474ZM64.0034 28H62.2034V29.8H64.0034V28ZM64.0034 24.392V22.592H62.2034V24.392H64.0034ZM64.9714 24.392V26.192H66.7714V24.392H64.9714ZM64.9714 19.376H66.7714V17.576H64.9714V19.376ZM64.0034 19.376H62.2034V21.176H64.0034V19.376ZM64.0034 15.768V13.968H62.2034V15.768H64.0034ZM70.0314 15.768H71.8314V13.968H70.0314V15.768ZM70.0314 24.392H68.2314V26.192H70.0314V24.392ZM70.9994 24.392H72.7994V22.592H70.9994V24.392ZM70.9994 28V29.8H72.7994V28H70.9994ZM66.8594 14.558V10.884H63.2594V14.558H66.8594ZM65.0594 12.684H69.5474V9.084H65.0594V12.684ZM67.7474 10.884V14.558H71.3474V10.884H67.7474ZM69.5474 12.758H65.0594V16.358H69.5474V12.758ZM65.8034 28V24.392H62.2034V28H65.8034ZM64.0034 26.192H64.9714V22.592H64.0034V26.192ZM66.7714 24.392V19.376H63.1714V24.392H66.7714ZM64.9714 17.576H64.0034V21.176H64.9714V17.576ZM65.8034 19.376V15.768H62.2034V19.376H65.8034ZM64.0034 17.568H70.0314V13.968H64.0034V17.568ZM68.2314 15.768V24.392H71.8314V15.768H68.2314ZM70.0314 26.192H70.9994V22.592H70.0314V26.192ZM69.1994 24.392V28H72.7994V24.392H69.1994ZM70.9994 26.2H64.0034V29.8H70.9994V26.2ZM84.2369 24.392L83.0001 25.6998L83.5205 26.192H84.2369V24.392ZM84.9409 24.392H86.7409V22.592H84.9409V24.392ZM84.9409 28V29.8H86.7409V28H84.9409ZM78.0769 28H76.2769V29.8H78.0769V28ZM78.0769 24.392V22.592H76.2769V24.392H78.0769ZM78.6929 24.392V26.192H82.0404L80.1945 23.3994L78.6929 24.392ZM77.8349 23.094L79.3365 22.1014L78.8028 21.294H77.8349V23.094ZM77.6149 23.094V21.294H76.647L76.1133 22.1014L77.6149 23.094ZM76.7569 24.392L75.2553 23.3994L73.4094 26.192H76.7569V24.392ZM77.3729 24.392H79.1729V22.592H77.3729V24.392ZM77.3729 28V29.8H79.1729V28H77.3729ZM71.4769 28H69.6769V29.8H71.4769V28ZM71.4769 24.392V22.592H69.6769V24.392H71.4769ZM72.4009 24.392V26.192H73.0874L73.5995 25.7349L72.4009 24.392ZM75.0629 22.016L76.2615 23.3589L77.7237 22.0538L76.2991 20.7077L75.0629 22.016ZM72.2689 19.376L73.5051 18.0677L72.9848 17.576H72.2689V19.376ZM71.5649 19.376H69.7649V21.176H71.5649V19.376ZM71.5649 15.768V13.968H69.7649V15.768H71.5649ZM78.4289 15.768H80.2289V13.968H78.4289V15.768ZM78.4289 19.376V21.176H80.2289V19.376H78.4289ZM77.8129 19.376V17.576H74.4335L76.3192 20.3804L77.8129 19.376ZM78.6709 20.652L77.1772 21.6564L77.7121 22.452H78.6709V20.652ZM78.8909 20.652V22.452H79.8496L80.3846 21.6564L78.8909 20.652ZM79.7489 19.376L81.2426 20.3804L83.1283 17.576H79.7489V19.376ZM79.1329 19.376H77.3329V21.176H79.1329V19.376ZM79.1329 15.768V13.968H77.3329V15.768H79.1329ZM84.8529 15.768H86.6529V13.968H84.8529V15.768ZM84.8529 19.376V21.176H86.6529V19.376H84.8529ZM83.9289 19.376V17.576H83.2259L82.7089 18.0525L83.9289 19.376ZM81.3989 21.708L80.1789 20.3845L78.7614 21.6911L80.1621 23.0158L81.3989 21.708ZM84.2369 26.192H84.9409V22.592H84.2369V26.192ZM83.1409 24.392V28H86.7409V24.392H83.1409ZM84.9409 26.2H78.0769V29.8H84.9409V26.2ZM79.8769 28V24.392H76.2769V28H79.8769ZM78.0769 26.192H78.6929V22.592H78.0769V26.192ZM80.1945 23.3994L79.3365 22.1014L76.3333 24.0866L77.1913 25.3846L80.1945 23.3994ZM77.8349 21.294H77.6149V24.894H77.8349V21.294ZM76.1133 22.1014L75.2553 23.3994L78.2585 25.3846L79.1165 24.0866L76.1133 22.1014ZM76.7569 26.192H77.3729V22.592H76.7569V26.192ZM75.5729 24.392V28H79.1729V24.392H75.5729ZM77.3729 26.2H71.4769V29.8H77.3729V26.2ZM73.2769 28V24.392H69.6769V28H73.2769ZM71.4769 26.192H72.4009V22.592H71.4769V26.192ZM73.5995 25.7349L76.2615 23.3589L73.8643 20.6731L71.2023 23.0491L73.5995 25.7349ZM76.2991 20.7077L73.5051 18.0677L71.0327 20.6843L73.8267 23.3243L76.2991 20.7077ZM72.2689 17.576H71.5649V21.176H72.2689V17.576ZM73.3649 19.376V15.768H69.7649V19.376H73.3649ZM71.5649 17.568H78.4289V13.968H71.5649V17.568ZM76.6289 15.768V19.376H80.2289V15.768H76.6289ZM78.4289 17.576H77.8129V21.176H78.4289V17.576ZM76.3192 20.3804L77.1772 21.6564L80.1646 19.6476L79.3066 18.3716L76.3192 20.3804ZM78.6709 22.452H78.8909V18.852H78.6709V22.452ZM80.3846 21.6564L81.2426 20.3804L78.2552 18.3716L77.3972 19.6476L80.3846 21.6564ZM79.7489 17.576H79.1329V21.176H79.7489V17.576ZM80.9329 19.376V15.768H77.3329V19.376H80.9329ZM79.1329 17.568H84.8529V13.968H79.1329V17.568ZM83.0529 15.768V19.376H86.6529V15.768H83.0529ZM84.8529 17.576H83.9289V21.176H84.8529V17.576ZM82.7089 18.0525L80.1789 20.3845L82.6188 23.0315L85.1488 20.6995L82.7089 18.0525ZM80.1621 23.0158L83.0001 25.6998L85.4737 23.0842L82.6357 20.4002L80.1621 23.0158Z" fill="#405FF3" mask="url(#path-1-outside-1_40_5802)"/>
<path d="M15.342 26.636L13.8473 27.639L13.8519 27.6457L13.8564 27.6524L15.342 26.636ZM15.342 17.132L13.8564 16.1156L13.8519 16.1223L13.8473 16.129L15.342 17.132ZM20.71 16.01L19.7386 17.5254L19.7473 17.5309L19.756 17.5364L20.71 16.01ZM22.14 17.264L20.7216 18.3722L23.94 22.4918V17.264H22.14ZM22.14 14.492H23.94V12.692H22.14V14.492ZM20.842 14.492H19.042V16.292H20.842V14.492ZM20.842 10.884V9.084H19.042V10.884H20.842ZM27.2 10.884H29V9.084H27.2V10.884ZM27.2 24.392H25.4V26.192H27.2V24.392ZM28.168 24.392H29.968V22.592H28.168V24.392ZM28.168 28V29.8H29.968V28H28.168ZM22.14 28H20.34V29.8H22.14V28ZM22.14 26.504H23.94V21.2762L20.7216 25.3958L22.14 26.504ZM20.71 27.758L19.756 26.2316L19.7473 26.2371L19.7386 26.2426L20.71 27.758ZM21.81 24.062L20.4968 22.8309L20.4941 22.8338L21.81 24.062ZM21.81 19.728L20.4554 20.9133L20.4948 20.9584L20.5372 21.0008L21.81 19.728ZM19.896 19.728L18.5828 18.4969L18.5801 18.4998L19.896 19.728ZM19.896 24.062L18.5414 25.2473L18.5808 25.2924L18.6232 25.3348L19.896 24.062ZM18.73 26.508C17.7532 26.508 17.2145 26.1851 16.8276 25.6196L13.8564 27.6524C14.9948 29.3162 16.7148 30.108 18.73 30.108V26.508ZM16.8367 25.633C16.3673 24.9336 16.02 23.7564 16.02 21.884H12.42C12.42 24.1183 12.8207 26.1091 13.8473 27.639L16.8367 25.633ZM16.02 21.884C16.02 20.0116 16.3673 18.8344 16.8367 18.135L13.8473 16.129C12.8207 17.6589 12.42 19.6497 12.42 21.884H16.02ZM16.8276 18.1484C17.2145 17.5829 17.7532 17.26 18.73 17.26V13.66C16.7148 13.66 14.9948 14.4518 13.8564 16.1156L16.8276 18.1484ZM18.73 17.26C19.1697 17.26 19.4854 17.3631 19.7386 17.5254L21.6814 14.4946C20.7906 13.9236 19.7863 13.66 18.73 13.66V17.26ZM19.756 17.5364C20.1929 17.8095 20.5032 18.0926 20.7216 18.3722L23.5584 16.1558C23.0435 15.4967 22.4004 14.9439 21.664 14.4836L19.756 17.5364ZM23.94 17.264V14.492H20.34V17.264H23.94ZM22.14 12.692H20.842V16.292H22.14V12.692ZM22.642 14.492V10.884H19.042V14.492H22.642ZM20.842 12.684H27.2V9.084H20.842V12.684ZM25.4 10.884V24.392H29V10.884H25.4ZM27.2 26.192H28.168V22.592H27.2V26.192ZM26.368 24.392V28H29.968V24.392H26.368ZM28.168 26.2H22.14V29.8H28.168V26.2ZM23.94 28V26.504H20.34V28H23.94ZM20.7216 25.3958C20.5032 25.6754 20.1929 25.9585 19.756 26.2316L21.664 29.2844C22.4004 28.8241 23.0435 28.2713 23.5584 27.6122L20.7216 25.3958ZM19.7386 26.2426C19.4854 26.4049 19.1697 26.508 18.73 26.508V30.108C19.7863 30.108 20.7906 29.8444 21.6814 29.2734L19.7386 26.2426ZM20.864 26.192C21.5774 26.192 22.4589 26.0048 23.1259 25.2902L20.4941 22.8338C20.6118 22.7078 20.7394 22.6404 20.8266 22.6099C20.9036 22.5831 20.9274 22.592 20.864 22.592V26.192ZM23.1232 25.2931C23.782 24.5903 23.94 23.6997 23.94 22.984H20.34C20.34 23.096 20.3265 23.1216 20.3363 23.0896C20.3483 23.0505 20.3897 22.9452 20.4968 22.8309L23.1232 25.2931ZM23.94 22.984V20.784H20.34V22.984H23.94ZM23.94 20.784C23.94 20.0809 23.7872 19.1597 23.0828 18.4552L20.5372 21.0008C20.4066 20.8702 20.3552 20.7443 20.3394 20.6939C20.3262 20.6516 20.34 20.6707 20.34 20.784H23.94ZM23.1646 18.5427C22.5058 17.7898 21.6105 17.576 20.864 17.576V21.176C20.9166 21.176 20.8801 21.1839 20.7918 21.151C20.692 21.1139 20.565 21.0386 20.4554 20.9133L23.1646 18.5427ZM20.864 17.576C20.109 17.576 19.243 17.7927 18.5828 18.4969L21.2092 20.9591C21.113 21.0617 21.0041 21.1244 20.9181 21.1556C20.8416 21.1835 20.8129 21.176 20.864 21.176V17.576ZM18.5801 18.4998C17.9213 19.2057 17.788 20.1077 17.788 20.784H21.388C21.388 20.6615 21.4019 20.6306 21.393 20.661C21.3825 20.6971 21.3388 20.8202 21.2119 20.9562L18.5801 18.4998ZM17.788 20.784V22.984H21.388V20.784H17.788ZM17.788 22.984C17.788 23.6738 17.9269 24.5451 18.5414 25.2473L21.2506 22.8767C21.354 22.9948 21.3884 23.0964 21.3957 23.122C21.4016 23.1424 21.388 23.1052 21.388 22.984H17.788ZM18.6232 25.3348C19.2894 26.001 20.1407 26.192 20.864 26.192V22.592C20.802 22.592 20.8184 22.5835 20.8838 22.6058C20.9577 22.631 21.066 22.6865 21.1688 22.7892L18.6232 25.3348ZM41.7025 24.392H43.5025V22.592H41.7025V24.392ZM41.7025 28V29.8H43.5025V28H41.7025ZM35.8945 28H34.0945V29.8H35.8945V28ZM35.8945 26.504H37.6945V20.7086L34.4112 25.4842L35.8945 26.504ZM34.5305 27.758L33.5765 26.2316L33.5677 26.2371L33.5591 26.2426L34.5305 27.758ZM29.8225 27.428L31.0485 26.1101L31.0485 26.1101L29.8225 27.428ZM35.9385 20.674L35.9665 22.4738L37.9016 22.4436L37.7315 20.5158L35.9385 20.674ZM35.3665 19.662L34.4808 21.229L34.5071 21.2439L34.5339 21.2579L35.3665 19.662ZM31.5165 19.596L31.8293 21.3686L31.8429 21.3662L31.8564 21.3636L31.5165 19.596ZM29.4485 20.146H27.6485V22.7363L30.0762 21.833L29.4485 20.146ZM29.4485 16.098L29.0197 14.3498L27.6485 14.6862V16.098H29.4485ZM40.7345 24.392H38.9345V26.192H40.7345V24.392ZM35.8945 22.852H37.6945V21.052H35.8945V22.852ZM34.3545 23.116L33.5756 21.4933L33.5625 21.4995L33.5495 21.506L34.3545 23.116ZM34.0465 24.612L32.7146 25.8228L32.7722 25.8862L32.8357 25.9439L34.0465 24.612ZM39.9025 24.392V28H43.5025V24.392H39.9025ZM41.7025 26.2H35.8945V29.8H41.7025V26.2ZM37.6945 28V26.504H34.0945V28H37.6945ZM34.4112 25.4842C34.255 25.7115 33.9978 25.9683 33.5765 26.2316L35.4845 29.2844C36.2365 28.8144 36.8886 28.2352 37.3777 27.5238L34.4112 25.4842ZM33.5591 26.2426C33.3374 26.3847 32.9897 26.508 32.4185 26.508V30.108C33.5192 30.108 34.5795 29.8646 35.5019 29.2734L33.5591 26.2426ZM32.4185 26.508C31.6426 26.508 31.2613 26.3081 31.0485 26.1101L28.5965 28.7459C29.645 29.7213 30.9943 30.108 32.4185 30.108V26.508ZM31.0485 26.1101C30.8693 25.9434 30.6765 25.6428 30.6765 24.942H27.0765C27.0765 26.3826 27.5143 27.7393 28.5965 28.7459L31.0485 26.1101ZM30.6765 24.942C30.6765 24.1802 30.9405 23.7188 31.573 23.3365C32.3464 22.8691 33.7321 22.5086 35.9665 22.4738L35.9104 18.8742C33.4368 18.9127 31.2916 19.3002 29.7109 20.2555C27.9894 21.2959 27.0765 22.9318 27.0765 24.942H30.6765ZM37.7315 20.5158C37.6527 19.6222 37.2491 18.614 36.1991 18.0661L34.5339 21.2579C34.3883 21.1819 34.2679 21.0608 34.1955 20.9327C34.1332 20.8226 34.1397 20.767 34.1454 20.8322L37.7315 20.5158ZM36.2522 18.095C35.4808 17.659 34.4994 17.576 33.6505 17.576V21.176C33.9899 21.176 34.2299 21.1966 34.3886 21.223C34.56 21.2516 34.562 21.2749 34.4808 21.229L36.2522 18.095ZM33.6505 17.576C32.8585 17.576 32.0322 17.6638 31.1765 17.8284L31.8564 21.3636C32.5261 21.2348 33.1224 21.176 33.6505 21.176V17.576ZM31.2037 17.8234C30.3618 17.972 29.5656 18.1818 28.8207 18.459L30.0762 21.833C30.5926 21.6408 31.1752 21.484 31.8293 21.3686L31.2037 17.8234ZM31.2485 20.146V16.098H27.6485V20.146H31.2485ZM29.8773 17.8462C30.5806 17.6737 31.3569 17.5311 32.2088 17.4212L31.7481 13.8508C30.7814 13.9755 29.871 14.141 29.0197 14.3498L29.8773 17.8462ZM32.2088 17.4212C33.0463 17.3131 33.8566 17.26 34.6405 17.26V13.66C33.6937 13.66 32.7293 13.7242 31.7481 13.8508L32.2088 17.4212ZM34.6405 17.26C36.6979 17.26 37.723 17.6502 38.1657 18.0237L40.4872 15.2723C39.0526 14.0618 36.9537 13.66 34.6405 13.66V17.26ZM38.1657 18.0237C38.5699 18.3648 38.9345 18.999 38.9345 20.322H42.5345C42.5345 18.3303 41.9603 16.5152 40.4872 15.2723L38.1657 18.0237ZM38.9345 20.322V24.392H42.5345V20.322H38.9345ZM40.7345 26.192H41.7025V22.592H40.7345V26.192ZM35.8945 21.052C35.1134 21.052 34.2908 21.1499 33.5756 21.4933L35.1334 24.7387C35.131 24.7399 35.1829 24.7154 35.3186 24.6921C35.4524 24.6692 35.6408 24.652 35.8945 24.652V21.052ZM33.5495 21.506C33.1144 21.7236 32.7044 22.0596 32.415 22.5419C32.1283 23.0197 32.0265 23.5301 32.0265 23.996H35.6265C35.6265 24.0512 35.6127 24.2096 35.502 24.3941C35.3885 24.5831 35.2425 24.6844 35.1595 24.726L33.5495 21.506ZM32.0265 23.996C32.0265 24.6243 32.2234 25.2825 32.7146 25.8228L35.3784 23.4012C35.4649 23.4964 35.5333 23.6105 35.5766 23.7316C35.6185 23.8489 35.6265 23.9435 35.6265 23.996H32.0265ZM32.8357 25.9439C33.4126 26.4684 34.1087 26.632 34.7065 26.632V23.032C34.7228 23.032 34.7954 23.034 34.9017 23.0694C35.014 23.1068 35.1409 23.1743 35.2573 23.2801L32.8357 25.9439ZM34.7065 26.632C35.7054 26.632 36.5705 26.1544 37.1051 25.3144L34.0679 23.3816C34.1041 23.3247 34.1911 23.2185 34.345 23.1338C34.4992 23.049 34.6366 23.032 34.7065 23.032V26.632ZM37.1051 25.3144C37.5677 24.5873 37.6945 23.7438 37.6945 22.984H34.0945C34.0945 23.1765 34.0772 23.2997 34.0617 23.3685C34.0463 23.4364 34.0379 23.4287 34.0679 23.3816L37.1051 25.3144ZM37.6945 22.984V22.852H34.0945V22.984H37.6945ZM55.6556 15.768H57.4556V13.968H55.6556V15.768ZM55.6556 19.376V21.176H57.4556V19.376H55.6556ZM54.8196 19.376V17.576H53.5752L53.1356 18.7403L54.8196 19.376ZM51.9376 27.01L50.2536 26.3743L50.2517 26.3794L51.9376 27.01ZM49.4736 31.322L48.1811 30.0692L48.1716 30.0791L49.4736 31.322ZM43.9516 32.576L44.3204 30.8142L44.3007 30.8101L44.2809 30.8064L43.9516 32.576ZM42.2356 32.07H40.4356V33.2569L41.5266 33.7245L42.2356 32.07ZM42.2356 28.088V26.288H40.4356V28.088H42.2356ZM45.2716 28.088H47.0716V26.288H45.2716V28.088ZM46.6136 28.374L48.1938 29.2359L48.5933 28.5036L48.2927 27.7254L46.6136 28.374ZM43.1376 19.376L44.8167 18.7274L44.3719 17.576H43.1376V19.376ZM42.3016 19.376H40.5016V21.176H42.3016V19.376ZM42.3016 15.768V13.968H40.5016V15.768H42.3016ZM48.8356 15.768H50.6356V13.968H48.8356V15.768ZM48.8356 19.376V21.176H50.6356V19.376H48.8356ZM48.0876 19.376V17.576H45.5903L46.38 19.9452L48.0876 19.376ZM49.2316 22.808L47.524 23.3772L49.3002 28.7058L50.952 23.3374L49.2316 22.808ZM50.2876 19.376L52.008 19.9054L52.7248 17.576H50.2876V19.376ZM49.5396 19.376H47.7396V21.176H49.5396V19.376ZM49.5396 15.768V13.968H47.7396V15.768H49.5396ZM53.8556 15.768V19.376H57.4556V15.768H53.8556ZM55.6556 17.576H54.8196V21.176H55.6556V17.576ZM53.1356 18.7403L50.2536 26.3743L53.6216 27.6457L56.5036 20.0117L53.1356 18.7403ZM50.2517 26.3794C49.5774 28.1821 48.8644 29.3642 48.1811 30.0692L50.7661 32.5748C51.9308 31.3731 52.8605 29.6806 53.6235 27.6406L50.2517 26.3794ZM48.1716 30.0791C47.6325 30.6439 46.91 30.974 45.8216 30.974V34.574C47.7546 34.574 49.4668 33.9361 50.7757 32.5649L48.1716 30.0791ZM45.8216 30.974C45.3351 30.974 44.8353 30.922 44.3204 30.8142L43.5829 34.3378C44.3293 34.494 45.0762 34.574 45.8216 34.574V30.974ZM44.2809 30.8064C43.7618 30.7098 43.3196 30.5762 42.9447 30.4155L41.5266 33.7245C42.1783 34.0038 42.8801 34.2075 43.6224 34.3456L44.2809 30.8064ZM44.0356 32.07V28.088H40.4356V32.07H44.0356ZM42.2356 29.888H45.2716V26.288H42.2356V29.888ZM43.4716 28.088V28.308H47.0716V28.088H43.4716ZM43.4716 28.308C43.4716 28.7872 43.5999 29.4727 44.167 30.018C44.721 30.5506 45.3928 30.658 45.8436 30.658V27.058C45.9131 27.058 46.299 27.0737 46.6622 27.423C47.0386 27.7849 47.0716 28.1955 47.0716 28.308H43.4716ZM45.8436 30.658C46.3118 30.658 46.8001 30.5419 47.247 30.2609C47.686 29.985 47.9896 29.6104 48.1938 29.2359L45.0334 27.5121C45.0617 27.4603 45.1489 27.3277 45.3312 27.2131C45.5215 27.0935 45.7128 27.058 45.8436 27.058V30.658ZM48.2927 27.7254L44.8167 18.7274L41.4586 20.0246L44.9346 29.0226L48.2927 27.7254ZM43.1376 17.576H42.3016V21.176H43.1376V17.576ZM44.1016 19.376V15.768H40.5016V19.376H44.1016ZM42.3016 17.568H48.8356V13.968H42.3016V17.568ZM47.0356 15.768V19.376H50.6356V15.768H47.0356ZM48.8356 17.576H48.0876V21.176H48.8356V17.576ZM46.38 19.9452L47.524 23.3772L50.9393 22.2388L49.7953 18.8068L46.38 19.9452ZM50.952 23.3374L52.008 19.9054L48.5672 18.8466L47.5112 22.2786L50.952 23.3374ZM50.2876 17.576H49.5396V21.176H50.2876V17.576ZM51.3396 19.376V15.768H47.7396V19.376H51.3396ZM49.5396 17.568H55.6556V13.968H49.5396V17.568ZM56.312 28.022H54.512V29.822H56.312V28.022ZM56.312 24.392V22.592H54.512V24.392H56.312ZM57.28 24.392V26.192H59.08V24.392H57.28ZM57.28 14.492H59.08V12.692H57.28V14.492ZM56.312 14.492H54.512V16.292H56.312V14.492ZM56.312 10.884V9.084H54.512V10.884H56.312ZM62.34 10.884H64.14V9.084H62.34V10.884ZM62.34 24.392H60.54V26.192H62.34V24.392ZM63.308 24.392H65.108V22.592H63.308V24.392ZM63.308 28.022V29.822H65.108V28.022H63.308ZM58.112 28.022V24.392H54.512V28.022H58.112ZM56.312 26.192H57.28V22.592H56.312V26.192ZM59.08 24.392V14.492H55.48V24.392H59.08ZM57.28 12.692H56.312V16.292H57.28V12.692ZM58.112 14.492V10.884H54.512V14.492H58.112ZM56.312 12.684H62.34V9.084H56.312V12.684ZM60.54 10.884V24.392H64.14V10.884H60.54ZM62.34 26.192H63.308V22.592H62.34V26.192ZM61.508 24.392V28.022H65.108V24.392H61.508ZM63.308 26.222H56.312V29.822H63.308V26.222ZM65.0594 14.558H63.2594V16.358H65.0594V14.558ZM65.0594 10.884V9.084H63.2594V10.884H65.0594ZM69.5474 10.884H71.3474V9.084H69.5474V10.884ZM69.5474 14.558V16.358H71.3474V14.558H69.5474ZM64.0034 28H62.2034V29.8H64.0034V28ZM64.0034 24.392V22.592H62.2034V24.392H64.0034ZM64.9714 24.392V26.192H66.7714V24.392H64.9714ZM64.9714 19.376H66.7714V17.576H64.9714V19.376ZM64.0034 19.376H62.2034V21.176H64.0034V19.376ZM64.0034 15.768V13.968H62.2034V15.768H64.0034ZM70.0314 15.768H71.8314V13.968H70.0314V15.768ZM70.0314 24.392H68.2314V26.192H70.0314V24.392ZM70.9994 24.392H72.7994V22.592H70.9994V24.392ZM70.9994 28V29.8H72.7994V28H70.9994ZM66.8594 14.558V10.884H63.2594V14.558H66.8594ZM65.0594 12.684H69.5474V9.084H65.0594V12.684ZM67.7474 10.884V14.558H71.3474V10.884H67.7474ZM69.5474 12.758H65.0594V16.358H69.5474V12.758ZM65.8034 28V24.392H62.2034V28H65.8034ZM64.0034 26.192H64.9714V22.592H64.0034V26.192ZM66.7714 24.392V19.376H63.1714V24.392H66.7714ZM64.9714 17.576H64.0034V21.176H64.9714V17.576ZM65.8034 19.376V15.768H62.2034V19.376H65.8034ZM64.0034 17.568H70.0314V13.968H64.0034V17.568ZM68.2314 15.768V24.392H71.8314V15.768H68.2314ZM70.0314 26.192H70.9994V22.592H70.0314V26.192ZM69.1994 24.392V28H72.7994V24.392H69.1994ZM70.9994 26.2H64.0034V29.8H70.9994V26.2ZM84.2369 24.392L83.0001 25.6998L83.5205 26.192H84.2369V24.392ZM84.9409 24.392H86.7409V22.592H84.9409V24.392ZM84.9409 28V29.8H86.7409V28H84.9409ZM78.0769 28H76.2769V29.8H78.0769V28ZM78.0769 24.392V22.592H76.2769V24.392H78.0769ZM78.6929 24.392V26.192H82.0404L80.1945 23.3994L78.6929 24.392ZM77.8349 23.094L79.3365 22.1014L78.8028 21.294H77.8349V23.094ZM77.6149 23.094V21.294H76.647L76.1133 22.1014L77.6149 23.094ZM76.7569 24.392L75.2553 23.3994L73.4094 26.192H76.7569V24.392ZM77.3729 24.392H79.1729V22.592H77.3729V24.392ZM77.3729 28V29.8H79.1729V28H77.3729ZM71.4769 28H69.6769V29.8H71.4769V28ZM71.4769 24.392V22.592H69.6769V24.392H71.4769ZM72.4009 24.392V26.192H73.0874L73.5995 25.7349L72.4009 24.392ZM75.0629 22.016L76.2615 23.3589L77.7237 22.0538L76.2991 20.7077L75.0629 22.016ZM72.2689 19.376L73.5051 18.0677L72.9848 17.576H72.2689V19.376ZM71.5649 19.376H69.7649V21.176H71.5649V19.376ZM71.5649 15.768V13.968H69.7649V15.768H71.5649ZM78.4289 15.768H80.2289V13.968H78.4289V15.768ZM78.4289 19.376V21.176H80.2289V19.376H78.4289ZM77.8129 19.376V17.576H74.4335L76.3192 20.3804L77.8129 19.376ZM78.6709 20.652L77.1772 21.6564L77.7121 22.452H78.6709V20.652ZM78.8909 20.652V22.452H79.8496L80.3846 21.6564L78.8909 20.652ZM79.7489 19.376L81.2426 20.3804L83.1283 17.576H79.7489V19.376ZM79.1329 19.376H77.3329V21.176H79.1329V19.376ZM79.1329 15.768V13.968H77.3329V15.768H79.1329ZM84.8529 15.768H86.6529V13.968H84.8529V15.768ZM84.8529 19.376V21.176H86.6529V19.376H84.8529ZM83.9289 19.376V17.576H83.2259L82.7089 18.0525L83.9289 19.376ZM81.3989 21.708L80.1789 20.3845L78.7614 21.6911L80.1621 23.0158L81.3989 21.708ZM84.2369 26.192H84.9409V22.592H84.2369V26.192ZM83.1409 24.392V28H86.7409V24.392H83.1409ZM84.9409 26.2H78.0769V29.8H84.9409V26.2ZM79.8769 28V24.392H76.2769V28H79.8769ZM78.0769 26.192H78.6929V22.592H78.0769V26.192ZM80.1945 23.3994L79.3365 22.1014L76.3333 24.0866L77.1913 25.3846L80.1945 23.3994ZM77.8349 21.294H77.6149V24.894H77.8349V21.294ZM76.1133 22.1014L75.2553 23.3994L78.2585 25.3846L79.1165 24.0866L76.1133 22.1014ZM76.7569 26.192H77.3729V22.592H76.7569V26.192ZM75.5729 24.392V28H79.1729V24.392H75.5729ZM77.3729 26.2H71.4769V29.8H77.3729V26.2ZM73.2769 28V24.392H69.6769V28H73.2769ZM71.4769 26.192H72.4009V22.592H71.4769V26.192ZM73.5995 25.7349L76.2615 23.3589L73.8643 20.6731L71.2023 23.0491L73.5995 25.7349ZM76.2991 20.7077L73.5051 18.0677L71.0327 20.6843L73.8267 23.3243L76.2991 20.7077ZM72.2689 17.576H71.5649V21.176H72.2689V17.576ZM73.3649 19.376V15.768H69.7649V19.376H73.3649ZM71.5649 17.568H78.4289V13.968H71.5649V17.568ZM76.6289 15.768V19.376H80.2289V15.768H76.6289ZM78.4289 17.576H77.8129V21.176H78.4289V17.576ZM76.3192 20.3804L77.1772 21.6564L80.1646 19.6476L79.3066 18.3716L76.3192 20.3804ZM78.6709 22.452H78.8909V18.852H78.6709V22.452ZM80.3846 21.6564L81.2426 20.3804L78.2552 18.3716L77.3972 19.6476L80.3846 21.6564ZM79.7489 17.576H79.1329V21.176H79.7489V17.576ZM80.9329 19.376V15.768H77.3329V19.376H80.9329ZM79.1329 17.568H84.8529V13.968H79.1329V17.568ZM83.0529 15.768V19.376H86.6529V15.768H83.0529ZM84.8529 17.576H83.9289V21.176H84.8529V17.576ZM82.7089 18.0525L80.1789 20.3845L82.6188 23.0315L85.1488 20.6995L82.7089 18.0525ZM80.1621 23.0158L83.0001 25.6998L85.4737 23.0842L82.6357 20.4002L80.1621 23.0158Z" fill="black" fill-opacity="0.2" mask="url(#path-1-outside-1_40_5802)"/>
</svg>
